<svg width="194" height="194" viewBox="0 0 194 194" fill="none" xmlns="http://www.w3.org/2000/svg">
<path d="M186.685 8.24967C176.92 -2.74989 161.108 -2.74989 151.353 8.24967L116.012 48.0485L101.879 32.129C94.0733 23.3361 81.4199 23.3361 73.614 32.129L59.4714 48.0485L151.343 151.537L165.476 135.617C173.282 126.836 173.282 112.571 165.476 103.778L151.343 87.8698L186.675 48.0485C196.44 37.0714 196.44 19.238 186.685 8.24967ZM172.552 40.0887C168.644 44.4908 162.328 44.4908 158.42 40.0887C154.512 35.6866 154.512 28.5713 158.42 24.1579C162.328 19.7671 168.644 19.7671 172.552 24.1579C176.45 28.5713 176.45 35.6866 172.552 40.0887Z" fill="#767676"/>
<path d="M38.2625 87.87C24.1299 103.778 6.82894 100.221 2.93097 95.8185C-0.97699 100.221 -0.97699 107.347 2.93097 111.749L66.5378 183.387C87.7367 207.266 108.936 183.387 108.936 183.387L137.211 151.537L59.4715 63.9795L38.2625 87.87Z" fill="#767676"/>
</svg>
