<svg width="194" height="201" viewBox="0 0 194 201" fill="none" xmlns="http://www.w3.org/2000/svg">
<path d="M92.3925 126.818L99.4929 77.0954L113.897 79.1518L107.059 127.031C132.512 128.748 156.616 136.964 177.762 151.135C188.005 135.78 194 117.35 194 97.5333C194 44.0475 150.486 0.533325 97 0.533325C43.5142 0.533325 0 44.0475 0 97.5333C0 117.341 5.9946 135.771 16.2281 151.135C38.8776 135.945 64.9221 127.662 92.3925 126.818ZM155.2 87.8333C160.554 87.8333 164.9 92.1692 164.9 97.5333C164.9 102.897 160.554 107.233 155.2 107.233C149.846 107.233 145.5 102.897 145.5 97.5333C145.5 92.1692 149.846 87.8333 155.2 87.8333ZM135.8 49.0333C141.154 49.0333 145.5 53.3692 145.5 58.7333C145.5 64.0974 141.154 68.4333 135.8 68.4333C130.446 68.4333 126.1 64.0974 126.1 58.7333C126.1 53.3692 130.446 49.0333 135.8 49.0333ZM97 29.6333C102.354 29.6333 106.7 33.9692 106.7 39.3333C106.7 44.6974 102.354 49.0333 97 49.0333C91.6456 49.0333 87.3 44.6974 87.3 39.3333C87.3 33.9692 91.6456 29.6333 97 29.6333ZM58.2 49.0333C63.5544 49.0333 67.9 53.3692 67.9 58.7333C67.9 64.0974 63.5544 68.4333 58.2 68.4333C52.8456 68.4333 48.5 64.0974 48.5 58.7333C48.5 53.3692 52.8456 49.0333 58.2 49.0333ZM38.8 87.8333C44.1544 87.8333 48.5 92.1692 48.5 97.5333C48.5 102.897 44.1544 107.233 38.8 107.233C33.4456 107.233 29.1 102.897 29.1 97.5333C29.1 92.1692 33.4456 87.8333 38.8 87.8333Z" fill="#757575"/>
<path d="M97.0002 146.033C72.3622 146.033 48.9367 152.998 28.5764 166.219C46.1334 183.718 70.3252 194.533 97.0002 194.533C123.685 194.533 147.877 183.698 165.434 166.209C145.073 152.988 121.629 146.033 97.0002 146.033Z" fill="#757575"/>
</svg>
