<svg width="194" height="194" viewBox="0 0 194 194" fill="none" xmlns="http://www.w3.org/2000/svg">
<path d="M194 87.3097H173.921C169.527 52.283 141.727 24.4731 106.7 20.079V0H87.3V20.0693C52.2733 24.4731 24.4731 52.2733 20.079 87.3H0V106.7H20.079C24.4731 141.727 52.2636 169.527 87.3 173.931V194H106.7V173.931C141.727 169.527 169.527 141.727 173.921 106.7H194V87.3097ZM154.317 87.3097H134.413C130.892 73.7394 120.261 63.1179 106.7 59.5871V39.6827C131.018 43.7858 150.214 62.9918 154.317 87.3097ZM97 116.41C86.2912 116.41 77.6 107.699 77.6 97.0097C77.6 86.3203 86.2912 77.6097 97 77.6097C107.689 77.6097 116.4 86.3203 116.4 97.0097C116.4 107.699 107.689 116.41 97 116.41ZM87.3 39.6827V59.5871C73.7297 63.1179 63.1082 73.7394 59.5774 87.3097H39.6827C43.7858 62.9918 62.9724 43.7858 87.3 39.6827ZM39.6827 106.71H59.5774C63.1082 120.27 73.7297 130.901 87.3 134.423V154.327C62.9724 150.224 43.7858 131.028 39.6827 106.71ZM106.7 154.327V134.423C120.261 130.892 130.892 120.27 134.413 106.7H154.317C150.214 131.028 131.018 150.224 106.7 154.327Z" fill="#757575"/>
</svg>
